<svg width="715" height="166" viewBox="0 0 715 166" fill="none" xmlns="http://www.w3.org/2000/svg">
<g clip-path="url(#clip0_65_27)">
<path d="M164.986 133.004C164.986 140.188 164.752 147.388 164.986 154.555C165.219 161.721 162.631 164.105 155.332 164.838C143.807 166.005 132.449 164.605 121.042 164.688C92.7648 164.905 64.5044 165.521 36.2441 165.921C33.3169 166.132 30.3747 165.919 27.5088 165.288C23.233 164.088 21.8801 161.288 25.2205 157.621C27.9263 154.671 30.8325 151.905 33.5717 149.071C61.1194 121.293 88.6393 93.5147 116.131 65.7364C119.823 61.9864 123.414 62.203 126.62 65.3031C138.98 77.1199 151.423 88.7868 162.664 101.687C164.768 104.087 164.986 106.97 164.986 109.937V133.004Z" fill="#2B2B2B"/>
<path d="M0 71.2365V11.3689C0.100214 1.83539 1.75374 0.185358 11.2741 0.102024C24.6359 -0.014645 37.9978 0.102024 51.3597 0.102024C54.2759 -0.0579989 57.1912 0.433525 59.8929 1.54075C62.5946 2.64797 65.0146 4.34297 66.9763 6.50213C76.6971 16.7356 86.8855 26.5025 97.0405 36.236C101.517 40.4694 101.483 43.5861 97.0405 48.0195C66.8093 77.72 36.979 107.754 6.98157 137.688C5.7289 138.938 4.74346 141.221 2.55546 140.454C-0.300642 139.454 0.100214 136.588 0.100214 134.288C0 113.354 0 92.2536 0 71.2365Z" fill="#2B2B2B"/>
<path d="M0 71.2365V11.3689C0.100214 1.83539 1.75375 0.185358 11.2741 0.102024C24.6359 -0.014645 37.9978 0.102024 51.3597 0.102024C54.2759 -0.0579989 57.1912 0.433525 59.8929 1.54075C62.5946 2.64797 65.0146 4.34297 66.9763 6.50213C76.6971 16.7356 86.8855 26.5025 97.0405 36.236C101.517 40.4694 101.483 43.5861 97.0405 48.0195C66.8093 77.72 36.979 107.754 6.98157 137.688C5.7289 138.938 4.74346 141.221 2.55546 140.454C-0.300642 139.454 0.100214 136.588 0.100214 134.288C0 113.354 0 92.2536 0 71.2365Z" fill="#2B2B2B"/>
<path d="M164.819 31.6859V54.0196C164.819 55.8529 164.819 57.953 162.781 58.8863C160.509 59.9197 158.639 58.7697 157.069 57.2196C141.068 41.1749 125.089 25.1358 109.133 9.10215C107.312 7.25212 105.091 5.15209 106.711 2.1687C108.081 -0.348004 110.82 0.0186687 113.175 0.0186687H155.582C161.896 0.0186687 164.885 3.06872 164.835 9.31882C164.785 16.6856 164.835 24.2024 164.819 31.6859Z" fill="#2B2B2B"/>
</g>
<path d="M228.822 88.586C226.914 88.586 225.34 87.9858 224.102 86.7853C222.882 85.6045 222.273 84.1285 222.273 82.3573V23.0221H235.548V82.3573C235.548 84.1285 234.918 85.6045 233.66 86.7853C232.401 87.9858 230.788 88.586 228.822 88.586ZM251.596 28.749H206.225C204.455 28.749 202.98 28.2078 201.8 27.1254C200.6 26.043 200 24.6162 200 22.845C200 21.0541 200.6 19.6371 201.8 18.5941C202.98 17.5314 204.455 17 206.225 17H251.596C253.366 17 254.85 17.5412 256.05 18.6236C257.25 19.7257 257.85 21.1623 257.85 22.9335C257.85 24.7047 257.25 26.1217 256.05 27.1844C254.85 28.2274 253.366 28.749 251.596 28.749ZM301.569 32.8522C303.339 32.8522 304.804 33.4328 305.964 34.5939C307.124 35.755 307.704 37.2507 307.704 39.081V82.3573C307.704 84.1285 307.124 85.6045 305.964 86.7853C304.804 87.9858 303.339 88.586 301.569 88.586C299.799 88.586 298.333 87.9858 297.173 86.7853C296.013 85.6045 295.432 84.1285 295.432 82.3573V77.3389L297.704 78.254C297.704 79.1396 297.222 80.2122 296.258 81.4717C295.314 82.7312 294.026 83.9809 292.394 85.2207C290.742 86.4409 288.815 87.4741 286.612 88.3203C284.39 89.1862 281.99 89.6192 279.414 89.6192C274.714 89.6192 270.456 88.4089 266.641 85.9882C262.825 83.5676 259.806 80.222 257.584 75.9514C255.362 71.7006 254.25 66.8101 254.25 61.28C254.25 55.6909 255.362 50.761 257.584 46.4905C259.806 42.2396 262.786 38.9038 266.522 36.4832C270.279 34.0626 274.438 32.8522 279.001 32.8522C281.931 32.8522 284.616 33.295 287.054 34.1806C289.513 35.0662 291.647 36.188 293.456 37.5459C295.265 38.9235 296.662 40.311 297.645 41.7082C298.628 43.1055 299.12 44.2765 299.12 45.2211L295.432 46.5495V39.081C295.432 37.3098 296.013 35.8338 297.173 34.653C298.333 33.4525 299.799 32.8522 301.569 32.8522ZM280.948 78.3721C283.937 78.3721 286.553 77.6144 288.795 76.099C291.057 74.6034 292.817 72.5665 294.076 69.9884C295.334 67.3906 295.964 64.4878 295.964 61.28C295.964 58.0131 295.334 55.0808 294.076 52.483C292.817 49.8853 291.057 47.8386 288.795 46.3429C286.553 44.8472 283.937 44.0994 280.948 44.0994C278.018 44.0994 275.422 44.8472 273.16 46.3429C270.918 47.8386 269.168 49.8853 267.909 52.483C266.65 55.0808 266.021 58.0131 266.021 61.28C266.021 64.4878 266.65 67.3906 267.909 69.9884C269.168 72.5665 270.918 74.6034 273.16 76.099C275.422 77.6144 278.018 78.3721 280.948 78.3721ZM349.713 32.8522C355.16 32.8522 359.182 34.161 361.778 36.7784C364.354 39.4155 366.055 42.8103 366.882 46.9628L365.141 46.0477L365.967 44.3946C366.773 42.8398 368.032 41.1572 369.743 39.3466C371.454 37.5361 373.519 36.001 375.938 34.7415C378.357 33.482 381.061 32.8522 384.051 32.8522C388.947 32.8522 392.674 33.9051 395.231 36.0109C397.788 38.1363 399.548 40.9506 400.512 44.4536C401.456 47.9763 401.927 51.8828 401.927 56.173V82.3573C401.927 84.1285 401.347 85.6045 400.187 86.7853C399.027 87.9858 397.562 88.586 395.792 88.586C394.022 88.586 392.556 87.9858 391.396 86.7853C390.236 85.6045 389.656 84.1285 389.656 82.3573V56.173C389.656 53.9295 389.39 51.9025 388.859 50.0919C388.308 48.2814 387.315 46.825 385.88 45.723C384.464 44.6406 382.418 44.0994 379.743 44.0994C377.167 44.0994 374.955 44.6406 373.106 45.723C371.277 46.825 369.9 48.2814 368.976 50.0919C368.052 51.9025 367.589 53.9295 367.589 56.173V82.3573C367.589 84.1285 367.009 85.6045 365.849 86.7853C364.689 87.9858 363.223 88.586 361.454 88.586C359.684 88.586 358.218 87.9858 357.058 86.7853C355.917 85.6045 355.347 84.1285 355.347 82.3573V56.173C355.347 53.9295 355.072 51.9025 354.521 50.0919C353.97 48.2814 352.977 46.825 351.542 45.723C350.126 44.6406 348.08 44.0994 345.406 44.0994C342.829 44.0994 340.617 44.6406 338.768 45.723C336.939 46.825 335.562 48.2814 334.638 50.0919C333.714 51.9025 333.251 53.9295 333.251 56.173V82.3573C333.251 84.1285 332.671 85.6045 331.511 86.7853C330.351 87.9858 328.885 88.586 327.116 88.586C325.346 88.586 323.88 87.9858 322.72 86.7853C321.579 85.6045 321.009 84.1285 321.009 82.3573V40.1142C321.009 38.343 321.579 36.8571 322.72 35.6566C323.88 34.4758 325.346 33.8854 327.116 33.8854C328.885 33.8854 330.351 34.4758 331.511 35.6566C332.671 36.8571 333.251 38.343 333.251 40.1142V44.5126L331.717 44.2174C332.327 43.0563 333.183 41.8066 334.284 40.4684C335.366 39.1498 336.693 37.91 338.266 36.7489C339.84 35.5878 341.58 34.6431 343.488 33.915C345.396 33.2065 347.471 32.8522 349.713 32.8522ZM459.482 32.8522C461.252 32.8522 462.707 33.4328 463.848 34.5939C465.008 35.755 465.589 37.2507 465.589 39.081V82.3573C465.589 84.1285 465.008 85.6045 463.848 86.7853C462.707 87.9858 461.252 88.586 459.482 88.586C457.692 88.586 456.227 87.9858 455.087 86.7853C453.926 85.6045 453.346 84.1285 453.346 82.3573V77.3389L455.588 78.254C455.588 79.1396 455.106 80.2122 454.143 81.4717C453.199 82.7312 451.91 83.9809 450.278 85.2207C448.646 86.4409 446.718 87.4741 444.496 88.3203C442.274 89.1862 439.874 89.6192 437.298 89.6192C432.598 89.6192 428.34 88.4089 424.525 85.9882C420.709 83.5676 417.69 80.222 415.468 75.9514C413.265 71.7006 412.164 66.8101 412.164 61.28C412.164 55.6909 413.265 50.761 415.468 46.4905C417.69 42.2396 420.67 38.9038 424.407 36.4832C428.163 34.0626 432.322 32.8522 436.885 32.8522C439.815 32.8522 442.51 33.295 444.968 34.1806C447.407 35.0662 449.531 36.188 451.34 37.5459C453.149 38.9235 454.546 40.311 455.529 41.7082C456.512 43.1055 457.004 44.2765 457.004 45.2211L453.346 46.5495V39.081C453.346 37.3098 453.926 35.8338 455.087 34.653C456.227 33.4525 457.692 32.8522 459.482 32.8522ZM438.832 78.3721C441.821 78.3721 444.447 77.6144 446.708 76.099C448.951 74.6034 450.701 72.5665 451.959 69.9884C453.218 67.3906 453.847 64.4878 453.847 61.28C453.847 58.0131 453.218 55.0808 451.959 52.483C450.701 49.8853 448.951 47.8386 446.708 46.3429C444.447 44.8472 441.821 44.0994 438.832 44.0994C435.902 44.0994 433.306 44.8472 431.044 46.3429C428.802 47.8386 427.052 49.8853 425.793 52.483C424.534 55.0808 423.905 58.0131 423.905 61.28C423.905 64.4878 424.534 67.3906 425.793 69.9884C427.052 72.5665 428.802 74.6034 431.044 76.099C433.306 77.6144 435.902 78.3721 438.832 78.3721ZM508.098 32.8522C513.152 32.8522 516.987 33.9051 519.603 36.0109C522.238 38.1363 524.048 40.9506 525.031 44.4536C526.014 47.9763 526.506 51.8828 526.506 56.173V82.3573C526.506 84.1285 525.926 85.6045 524.766 86.7853C523.605 87.9858 522.14 88.586 520.37 88.586C518.6 88.586 517.135 87.9858 515.975 86.7853C514.814 85.6045 514.234 84.1285 514.234 82.3573V56.173C514.234 53.9295 513.949 51.9025 513.378 50.0919C512.788 48.2814 511.746 46.825 510.251 45.723C508.757 44.6406 506.613 44.0994 503.82 44.0994C501.087 44.0994 498.786 44.6406 496.918 45.723C495.049 46.825 493.623 48.2814 492.64 50.0919C491.637 51.9025 491.135 53.9295 491.135 56.173V82.3573C491.135 84.1285 490.565 85.6045 489.424 86.7853C488.264 87.9858 486.799 88.586 485.029 88.586C483.259 88.586 481.794 87.9858 480.633 86.7853C479.473 85.6045 478.893 84.1285 478.893 82.3573V40.1142C478.893 38.343 479.473 36.8571 480.633 35.6566C481.794 34.4758 483.259 33.8854 485.029 33.8854C486.799 33.8854 488.264 34.4758 489.424 35.6566C490.565 36.8571 491.135 38.343 491.135 40.1142V44.5126L489.602 44.2174C490.231 43.0563 491.126 41.8066 492.286 40.4684C493.427 39.1498 494.784 37.91 496.357 36.7489C497.93 35.5878 499.7 34.6431 501.667 33.915C503.653 33.2065 505.797 32.8522 508.098 32.8522ZM579.842 33.8854C581.612 33.8854 583.077 34.4758 584.238 35.6566C585.398 36.8571 585.978 38.343 585.978 40.1142V83.5676C585.978 89.8455 584.808 94.8442 582.468 98.5638C580.108 102.283 576.951 104.96 572.998 106.593C569.045 108.227 564.62 109.043 559.723 109.043C557.54 109.043 555.219 108.876 552.761 108.542C550.322 108.187 548.316 107.676 546.743 107.006C544.698 106.121 543.282 105.009 542.495 103.671C541.708 102.332 541.561 100.916 542.052 99.4198C542.662 97.4518 543.646 96.1038 545.003 95.3756C546.359 94.6671 547.795 94.5884 549.309 95.1394C550.391 95.474 551.817 95.9955 553.587 96.704C555.357 97.4322 557.402 97.7962 559.723 97.7962C562.85 97.7962 565.456 97.3633 567.54 96.4974C569.625 95.6511 571.189 94.2243 572.231 92.217C573.293 90.2096 573.824 87.4642 573.824 83.9809V77.1322L575.978 79.5824C574.817 81.8259 573.372 83.6857 571.641 85.1617C569.891 86.618 567.826 87.7299 565.446 88.4974C563.066 89.2453 560.342 89.6192 557.275 89.6192C553.656 89.6192 550.499 88.7828 547.805 87.11C545.13 85.4372 543.036 83.115 541.521 80.1433C540.027 77.1913 539.28 73.8063 539.28 69.9884V40.1142C539.28 38.343 539.86 36.8571 541.02 35.6566C542.18 34.4758 543.646 33.8854 545.415 33.8854C547.185 33.8854 548.651 34.4758 549.811 35.6566C550.971 36.8571 551.552 38.343 551.552 40.1142V66.2984C551.552 70.7264 552.525 73.8457 554.472 75.6562C556.399 77.4668 559.103 78.3721 562.585 78.3721C564.964 78.3721 566.97 77.9096 568.603 76.9846C570.235 76.0597 571.493 74.6919 572.378 72.8814C573.283 71.0708 573.736 68.8765 573.736 66.2984V40.1142C573.736 38.343 574.306 36.8571 575.447 35.6566C576.607 34.4758 578.072 33.8854 579.842 33.8854ZM647.604 32.8522C649.374 32.8522 650.839 33.4328 651.999 34.5939C653.159 35.755 653.74 37.2507 653.74 39.081V82.3573C653.74 84.1285 653.159 85.6045 651.999 86.7853C650.839 87.9858 649.374 88.586 647.604 88.586C645.834 88.586 644.368 87.9858 643.208 86.7853C642.048 85.6045 641.468 84.1285 641.468 82.3573V77.3389L643.71 78.254C643.71 79.1396 643.238 80.2122 642.294 81.4717C641.33 82.7312 640.032 83.9809 638.4 85.2207C636.767 86.4409 634.85 87.4741 632.647 88.3203C630.425 89.1862 628.016 89.6192 625.42 89.6192C620.719 89.6192 616.461 88.4089 612.646 85.9882C608.831 83.5676 605.822 80.222 603.619 75.9514C601.397 71.7006 600.286 66.8101 600.286 61.28C600.286 55.6909 601.397 50.761 603.619 46.4905C605.822 42.2396 608.801 38.9038 612.558 36.4832C616.294 34.0626 620.454 32.8522 625.036 32.8522C627.966 32.8522 630.651 33.295 633.09 34.1806C635.548 35.0662 637.682 36.188 639.491 37.5459C641.3 38.9235 642.697 40.311 643.68 41.7082C644.663 43.1055 645.155 44.2765 645.155 45.2211L641.468 46.5495V39.081C641.468 37.3098 642.048 35.8338 643.208 34.653C644.368 33.4525 645.834 32.8522 647.604 32.8522ZM626.954 78.3721C629.963 78.3721 632.588 77.6144 634.83 76.099C637.072 74.6034 638.832 72.5665 640.111 69.9884C641.369 67.3906 641.999 64.4878 641.999 61.28C641.999 58.0131 641.369 55.0808 640.111 52.483C638.832 49.8853 637.072 47.8386 634.83 46.3429C632.588 44.8472 629.963 44.0994 626.954 44.0994C624.023 44.0994 621.437 44.8472 619.195 46.3429C616.953 47.8386 615.203 49.8853 613.944 52.483C612.685 55.0808 612.056 58.0131 612.056 61.28C612.056 64.4878 612.685 67.3906 613.944 69.9884C615.203 72.5665 616.953 74.6034 619.195 76.099C621.437 77.6144 624.023 78.3721 626.954 78.3721ZM696.249 32.8522C701.284 32.8522 705.119 33.9051 707.754 36.0109C710.37 38.1363 712.169 40.9506 713.153 44.4536C714.156 47.9763 714.657 51.8828 714.657 56.173V82.3573C714.657 84.1285 714.077 85.6045 712.917 86.7853C711.756 87.9858 710.291 88.586 708.521 88.586C706.751 88.586 705.286 87.9858 704.126 86.7853C702.965 85.6045 702.385 84.1285 702.385 82.3573V56.173C702.385 53.9295 702.1 51.9025 701.53 50.0919C700.94 48.2814 699.897 46.825 698.403 45.723C696.908 44.6406 694.764 44.0994 691.972 44.0994C689.238 44.0994 686.937 44.6406 685.069 45.723C683.2 46.825 681.765 48.2814 680.762 50.0919C679.778 51.9025 679.286 53.9295 679.286 56.173V82.3573C679.286 84.1285 678.706 85.6045 677.546 86.7853C676.386 87.9858 674.921 88.586 673.151 88.586C671.38 88.586 669.915 87.9858 668.755 86.7853C667.595 85.6045 667.015 84.1285 667.015 82.3573V40.1142C667.015 38.343 667.595 36.8571 668.755 35.6566C669.915 34.4758 671.38 33.8854 673.151 33.8854C674.921 33.8854 676.386 34.4758 677.546 35.6566C678.706 36.8571 679.286 38.343 679.286 40.1142V44.5126L677.753 44.2174C678.362 43.0563 679.247 41.8066 680.408 40.4684C681.568 39.1498 682.935 37.91 684.508 36.7489C686.062 35.5878 687.832 34.6431 689.818 33.915C691.785 33.2065 693.928 32.8522 696.249 32.8522Z" fill="#2B2B2B"/>
<path d="M275.55 123.557C278.488 123.557 280.744 124.093 282.318 125.165C283.876 126.237 284.656 127.91 284.656 130.184C284.656 131.385 284.445 132.409 284.023 133.253C283.617 134.098 283.008 134.788 282.197 135.324C281.401 135.86 280.427 136.258 279.275 136.518C278.139 136.762 276.824 136.883 275.331 136.883H273.505V144.022H269.829V124.044C270.673 123.849 271.622 123.719 272.677 123.654C273.716 123.589 274.674 123.557 275.55 123.557ZM275.818 126.748C274.876 126.748 274.105 126.773 273.505 126.821V133.741H275.282C277.051 133.741 278.415 133.489 279.372 132.985C280.33 132.482 280.809 131.54 280.809 130.159C280.809 129.493 280.679 128.941 280.419 128.503C280.176 128.048 279.827 127.699 279.372 127.455C278.918 127.195 278.39 127.008 277.79 126.895C277.173 126.797 276.516 126.748 275.818 126.748ZM299.604 128.941L298.996 131.913C298.703 131.816 298.298 131.718 297.778 131.621C297.259 131.507 296.658 131.45 295.977 131.45C295.587 131.45 295.173 131.491 294.735 131.572C294.297 131.653 293.988 131.718 293.81 131.767V144.022H290.28V129.453C290.961 129.209 291.813 128.974 292.836 128.746C293.859 128.519 294.995 128.405 296.244 128.405C296.472 128.405 296.74 128.421 297.048 128.454C297.373 128.486 297.689 128.527 297.997 128.576C298.306 128.624 298.606 128.681 298.898 128.746C299.19 128.811 299.426 128.876 299.604 128.941ZM318.302 136.372C318.302 137.574 318.132 138.67 317.791 139.661C317.434 140.652 316.931 141.504 316.282 142.219C315.649 142.917 314.878 143.461 313.969 143.851C313.06 144.241 312.062 144.436 310.974 144.436C309.887 144.436 308.896 144.241 308.004 143.851C307.095 143.461 306.324 142.917 305.691 142.219C305.042 141.504 304.538 140.652 304.181 139.661C303.824 138.67 303.646 137.574 303.646 136.372C303.646 135.154 303.824 134.057 304.181 133.083C304.538 132.092 305.042 131.247 305.691 130.549C306.356 129.851 307.135 129.307 308.028 128.917C308.921 128.543 309.903 128.356 310.974 128.356C312.045 128.356 313.035 128.543 313.944 128.917C314.853 129.307 315.624 129.851 316.257 130.549C316.906 131.247 317.41 132.092 317.767 133.083C318.124 134.057 318.302 135.154 318.302 136.372ZM314.675 136.372C314.675 134.845 314.35 133.635 313.701 132.742C313.052 131.865 312.143 131.426 310.974 131.426C309.805 131.426 308.896 131.865 308.247 132.742C307.598 133.635 307.273 134.845 307.273 136.372C307.273 137.899 307.598 139.117 308.247 140.026C308.896 140.92 309.805 141.366 310.974 141.366C312.143 141.366 313.052 140.92 313.701 140.026C314.35 139.117 314.675 137.899 314.675 136.372ZM334.541 136.445C334.541 134.869 334.184 133.643 333.47 132.766C332.756 131.889 331.612 131.45 330.037 131.45C329.696 131.45 329.347 131.467 328.99 131.499C328.633 131.532 328.276 131.597 327.919 131.694V140.416C328.244 140.643 328.658 140.846 329.161 141.025C329.68 141.204 330.232 141.293 330.816 141.293C332.099 141.293 333.04 140.855 333.641 139.977C334.241 139.1 334.541 137.923 334.541 136.445ZM338.145 136.396C338.145 137.566 337.999 138.638 337.706 139.612C337.398 140.587 336.96 141.423 336.392 142.121C335.84 142.82 335.134 143.364 334.274 143.754C333.43 144.144 332.472 144.338 331.401 144.338C330.687 144.338 330.029 144.249 329.429 144.07C328.812 143.908 328.309 143.713 327.919 143.486V149.43H324.389V129.233C325.119 129.039 326.004 128.852 327.043 128.673C328.098 128.494 329.209 128.405 330.378 128.405C331.595 128.405 332.675 128.592 333.616 128.965C334.574 129.339 335.393 129.867 336.075 130.549C336.741 131.247 337.252 132.092 337.609 133.083C337.966 134.057 338.145 135.162 338.145 136.396ZM343.403 136.445C343.403 135.097 343.598 133.919 343.988 132.912C344.394 131.905 344.929 131.061 345.595 130.378C346.244 129.713 346.999 129.209 347.859 128.868C348.719 128.527 349.596 128.356 350.488 128.356C352.598 128.356 354.238 129.006 355.406 130.305C356.591 131.621 357.184 133.57 357.184 136.152C357.184 136.347 357.175 136.567 357.159 136.81C357.159 137.054 357.151 137.273 357.135 137.468H347.055C347.153 138.702 347.583 139.653 348.346 140.319C349.109 141.001 350.22 141.342 351.681 141.342C352.541 141.342 353.329 141.261 354.043 141.098C354.757 140.936 355.317 140.773 355.723 140.611L356.185 143.486C355.991 143.583 355.723 143.689 355.382 143.802C355.041 143.916 354.651 144.014 354.213 144.095C353.775 144.176 353.304 144.249 352.801 144.314C352.298 144.379 351.779 144.412 351.243 144.412C349.912 144.412 348.743 144.208 347.737 143.802C346.747 143.396 345.935 142.844 345.302 142.146C344.653 141.431 344.174 140.587 343.866 139.612C343.558 138.654 343.403 137.598 343.403 136.445ZM347.08 134.861H353.653C353.653 134.374 353.58 133.911 353.434 133.473C353.304 133.034 353.11 132.66 352.85 132.352C352.59 132.027 352.266 131.767 351.876 131.572C351.503 131.394 351.048 131.304 350.513 131.304C349.977 131.304 349.506 131.41 349.101 131.621C348.679 131.816 348.33 132.084 348.054 132.425C347.778 132.75 347.559 133.123 347.396 133.546C347.234 133.984 347.128 134.423 347.08 134.861ZM372.668 128.941L372.059 131.913C371.767 131.816 371.361 131.718 370.842 131.621C370.339 131.507 369.746 131.45 369.065 131.45C368.675 131.45 368.261 131.491 367.823 131.572C367.385 131.653 367.076 131.718 366.898 131.767V144.022H363.367V129.453C364.049 129.209 364.901 128.974 365.924 128.746C366.946 128.519 368.074 128.405 369.308 128.405C369.551 128.405 369.827 128.421 370.136 128.454C370.444 128.486 370.753 128.527 371.061 128.576C371.386 128.624 371.694 128.681 371.986 128.746C372.278 128.811 372.506 128.876 372.668 128.941ZM377.391 137.931V124.702L380.921 124.117V128.722H386.351V131.694H380.921V137.907C380.921 139.141 381.116 140.018 381.506 140.538C381.895 141.074 382.561 141.342 383.502 141.342C384.135 141.342 384.703 141.269 385.206 141.123C385.709 140.993 386.107 140.871 386.399 140.757L386.984 143.559C386.562 143.737 386.026 143.916 385.377 144.095C384.711 144.273 383.932 144.363 383.039 144.363C381.936 144.363 381.019 144.217 380.288 143.924C379.558 143.632 378.982 143.21 378.56 142.657C378.138 142.105 377.837 141.431 377.659 140.635C377.48 139.856 377.391 138.954 377.391 137.931ZM401.031 128.722H404.683C403.109 134.536 401.283 139.799 399.205 144.509C398.816 145.386 398.41 146.141 397.988 146.775C397.582 147.392 397.128 147.904 396.625 148.31C396.122 148.732 395.553 149.032 394.92 149.211C394.304 149.39 393.59 149.479 392.778 149.479C392.226 149.479 391.682 149.422 391.147 149.308C390.611 149.195 390.205 149.073 389.929 148.943L390.587 146.093C391.285 146.369 391.975 146.507 392.656 146.507C393.565 146.507 394.279 146.287 394.799 145.849C395.318 145.41 395.773 144.736 396.162 143.827C395.042 141.683 393.971 139.344 392.948 136.81C391.926 134.277 391.017 131.58 390.222 128.722H393.995C394.19 129.55 394.425 130.443 394.701 131.402C394.993 132.344 395.302 133.31 395.626 134.301C395.967 135.292 396.316 136.274 396.673 137.249C397.047 138.223 397.42 139.125 397.793 139.953C398.41 138.215 398.994 136.372 399.546 134.423C400.098 132.457 400.593 130.557 401.031 128.722ZM428.543 144.022H425.013C423.552 140.871 422.148 137.566 420.801 134.106C419.437 130.663 418.171 127.211 417.003 123.752H421.068C421.539 125.116 422.018 126.513 422.505 127.942C422.992 129.371 423.479 130.768 423.966 132.133C424.453 133.513 424.94 134.845 425.426 136.128C425.913 137.411 426.392 138.589 426.863 139.661C427.301 138.589 427.764 137.419 428.251 136.152C428.738 134.869 429.233 133.538 429.736 132.157C430.223 130.776 430.71 129.371 431.197 127.942C431.684 126.513 432.154 125.116 432.609 123.752H436.553C435.368 127.211 434.102 130.663 432.755 134.106C431.408 137.566 430.004 140.871 428.543 144.022ZM445.001 128.722V144.022H441.471V128.722H445.001ZM445.391 124.263C445.391 124.929 445.171 125.457 444.733 125.847C444.311 126.237 443.808 126.432 443.224 126.432C442.623 126.432 442.104 126.237 441.666 125.847C441.244 125.457 441.033 124.929 441.033 124.263C441.033 123.581 441.244 123.045 441.666 122.655C442.104 122.266 442.623 122.071 443.224 122.071C443.808 122.071 444.311 122.266 444.733 122.655C445.171 123.045 445.391 123.581 445.391 124.263ZM461.264 128.941L460.656 131.913C460.364 131.816 459.958 131.718 459.438 131.621C458.919 131.507 458.318 131.45 457.637 131.45C457.247 131.45 456.833 131.491 456.395 131.572C455.957 131.653 455.648 131.718 455.47 131.767V144.022H451.94V129.453C452.621 129.209 453.474 128.974 454.496 128.746C455.519 128.519 456.655 128.405 457.905 128.405C458.132 128.405 458.4 128.421 458.708 128.454C459.033 128.486 459.349 128.527 459.658 128.576C459.966 128.624 460.266 128.681 460.558 128.746C460.85 128.811 461.086 128.876 461.264 128.941ZM465.963 137.931V124.702L469.518 124.117V128.722H474.947V131.694H469.518V137.907C469.518 139.141 469.713 140.018 470.102 140.538C470.492 141.074 471.149 141.342 472.074 141.342C472.723 141.342 473.292 141.269 473.778 141.123C474.282 140.993 474.679 140.871 474.971 140.757L475.556 143.559C475.15 143.737 474.614 143.916 473.949 144.095C473.283 144.273 472.504 144.363 471.612 144.363C470.524 144.363 469.615 144.217 468.885 143.924C468.154 143.632 467.57 143.21 467.132 142.657C466.71 142.105 466.41 141.431 466.231 140.635C466.053 139.856 465.963 138.954 465.963 137.931ZM493.329 128.722V143.559C492.647 143.737 491.762 143.916 490.675 144.095C489.587 144.273 488.386 144.363 487.072 144.363C485.854 144.363 484.832 144.192 484.004 143.851C483.176 143.494 482.511 143.007 482.008 142.389C481.504 141.756 481.147 141.009 480.936 140.148C480.725 139.287 480.62 138.337 480.62 137.298V128.722H484.15V136.737C484.15 138.378 484.393 139.547 484.88 140.245C485.351 140.944 486.179 141.293 487.364 141.293C487.802 141.293 488.256 141.277 488.727 141.244C489.198 141.212 489.555 141.163 489.798 141.098V128.722H493.329ZM505.648 141.537C506.735 141.537 507.563 141.48 508.131 141.366V137.444C507.936 137.379 507.652 137.322 507.279 137.273C506.906 137.208 506.492 137.176 506.037 137.176C505.648 137.176 505.258 137.208 504.869 137.273C504.463 137.322 504.098 137.427 503.773 137.59C503.465 137.752 503.213 137.972 503.018 138.248C502.824 138.524 502.726 138.881 502.726 139.32C502.726 140.148 502.986 140.725 503.505 141.049C504.025 141.374 504.739 141.537 505.648 141.537ZM505.356 128.356C506.524 128.356 507.506 128.503 508.302 128.795C509.097 129.087 509.73 129.493 510.201 130.013C510.688 130.549 511.028 131.191 511.223 131.938C511.434 132.685 511.54 133.505 511.54 134.398V143.681C510.988 143.794 510.168 143.932 509.081 144.095C507.977 144.257 506.735 144.338 505.356 144.338C504.431 144.338 503.587 144.249 502.824 144.07C502.077 143.908 501.436 143.632 500.9 143.242C500.365 142.852 499.943 142.341 499.634 141.707C499.326 141.09 499.172 140.319 499.172 139.393C499.172 138.516 499.342 137.777 499.683 137.176C500.024 136.575 500.486 136.088 501.071 135.714C501.655 135.324 502.337 135.048 503.116 134.886C503.879 134.723 504.682 134.642 505.526 134.642C505.916 134.642 506.321 134.666 506.743 134.715C507.182 134.764 507.644 134.845 508.131 134.959V134.374C508.131 133.968 508.083 133.578 507.985 133.205C507.888 132.831 507.717 132.506 507.474 132.23C507.23 131.938 506.906 131.718 506.5 131.572C506.094 131.41 505.591 131.329 504.991 131.329C504.179 131.329 503.432 131.385 502.751 131.499C502.069 131.629 501.509 131.767 501.071 131.913L500.633 129.063C501.087 128.9 501.744 128.738 502.605 128.576C503.465 128.429 504.382 128.356 505.356 128.356ZM524.102 141.391L523.616 144.314C522.561 144.298 521.692 144.184 521.01 143.973C520.313 143.746 519.761 143.437 519.355 143.047C518.949 142.641 518.657 142.146 518.478 141.561C518.316 140.96 518.235 140.278 518.235 139.515V121.925L521.765 121.34V138.857C521.765 139.279 521.806 139.636 521.887 139.929C521.952 140.221 522.074 140.473 522.252 140.684C522.414 140.879 522.65 141.033 522.958 141.147C523.267 141.244 523.648 141.326 524.102 141.391ZM539.83 123.752H543.239C543.661 124.499 544.14 125.408 544.675 126.48C545.195 127.552 545.73 128.681 546.282 129.867C546.818 131.036 547.353 132.23 547.889 133.448C548.424 134.666 548.92 135.795 549.374 136.835C549.828 135.795 550.315 134.666 550.835 133.448C551.354 132.23 551.89 131.036 552.442 129.867C552.994 128.681 553.529 127.552 554.049 126.48C554.568 125.408 555.047 124.499 555.485 123.752H558.82C558.983 125.246 559.145 126.821 559.307 128.478C559.47 130.151 559.608 131.856 559.721 133.594C559.851 135.349 559.973 137.103 560.086 138.857C560.184 140.627 560.273 142.349 560.354 144.022H556.727C556.662 141.667 556.572 139.238 556.459 136.737C556.345 134.252 556.183 131.84 555.972 129.501C555.761 129.94 555.509 130.476 555.217 131.109C554.925 131.727 554.617 132.401 554.292 133.131C553.951 133.862 553.61 134.618 553.269 135.397C552.929 136.177 552.596 136.932 552.271 137.663C551.963 138.394 551.671 139.076 551.395 139.709C551.119 140.343 550.884 140.887 550.689 141.342H547.938C547.743 140.887 547.507 140.335 547.232 139.685C546.972 139.052 546.68 138.37 546.355 137.639C546.03 136.908 545.698 136.152 545.357 135.373C545.016 134.593 544.683 133.838 544.359 133.107C544.018 132.392 543.701 131.718 543.409 131.085C543.117 130.452 542.865 129.924 542.654 129.501C542.443 131.84 542.281 134.252 542.167 136.737C542.07 139.238 541.981 141.667 541.9 144.022H538.272C538.353 142.349 538.443 140.611 538.54 138.808C538.654 137.021 538.775 135.243 538.905 133.473C539.035 131.718 539.173 130.013 539.319 128.356C539.481 126.7 539.652 125.165 539.83 123.752ZM580.732 136.372C580.732 137.574 580.554 138.67 580.197 139.661C579.856 140.652 579.361 141.504 578.711 142.219C578.078 142.917 577.307 143.461 576.399 143.851C575.49 144.241 574.491 144.436 573.404 144.436C572.316 144.436 571.318 144.241 570.409 143.851C569.517 143.461 568.754 142.917 568.121 142.219C567.471 141.504 566.968 140.652 566.611 139.661C566.254 138.67 566.076 137.574 566.076 136.372C566.076 135.154 566.254 134.057 566.611 133.083C566.968 132.092 567.471 131.247 568.121 130.549C568.77 129.851 569.549 129.307 570.458 128.917C571.351 128.543 572.333 128.356 573.404 128.356C574.475 128.356 575.465 128.543 576.374 128.917C577.267 129.307 578.038 129.851 578.687 130.549C579.336 131.247 579.839 132.092 580.197 133.083C580.554 134.057 580.732 135.154 580.732 136.372ZM577.105 136.372C577.105 134.845 576.78 133.635 576.131 132.742C575.481 131.865 574.573 131.426 573.404 131.426C572.235 131.426 571.326 131.865 570.677 132.742C570.012 133.635 569.679 134.845 569.679 136.372C569.679 137.899 570.012 139.117 570.677 140.026C571.326 140.92 572.235 141.366 573.404 141.366C574.573 141.366 575.481 140.92 576.131 140.026C576.78 139.117 577.105 137.899 577.105 136.372ZM589.594 136.323C589.594 137.882 589.968 139.109 590.714 140.002C591.445 140.895 592.467 141.342 593.782 141.342C594.334 141.342 594.813 141.317 595.218 141.269C595.624 141.22 595.949 141.163 596.192 141.098V132.328C595.884 132.116 595.47 131.913 594.951 131.718C594.431 131.54 593.879 131.45 593.295 131.45C592.013 131.45 591.079 131.889 590.495 132.766C589.895 133.643 589.594 134.829 589.594 136.323ZM599.722 121.34V143.559C599.024 143.77 598.148 143.965 597.093 144.144C596.022 144.322 594.902 144.412 593.733 144.412C592.532 144.412 591.453 144.225 590.495 143.851C589.538 143.478 588.726 142.942 588.06 142.243C587.395 141.561 586.876 140.725 586.502 139.734C586.145 138.759 585.967 137.655 585.967 136.42C585.967 135.219 586.121 134.122 586.429 133.131C586.721 132.141 587.16 131.296 587.744 130.598C588.328 129.899 589.042 129.363 589.886 128.99C590.73 128.6 591.696 128.405 592.784 128.405C593.514 128.405 594.163 128.494 594.731 128.673C595.299 128.852 595.786 129.047 596.192 129.258V121.925L599.722 121.34ZM605.809 136.445C605.809 135.097 606.012 133.919 606.418 132.912C606.823 131.905 607.351 131.061 608 130.378C608.666 129.713 609.428 129.209 610.289 128.868C611.149 128.527 612.025 128.356 612.918 128.356C615.028 128.356 616.667 129.006 617.836 130.305C619.021 131.621 619.613 133.57 619.613 136.152C619.613 136.347 619.605 136.567 619.589 136.81C619.589 137.054 619.573 137.273 619.54 137.468H609.461C609.558 138.702 609.997 139.653 610.776 140.319C611.538 141.001 612.65 141.342 614.111 141.342C614.971 141.342 615.759 141.261 616.473 141.098C617.187 140.936 617.747 140.773 618.153 140.611L618.615 143.486C618.42 143.583 618.153 143.689 617.812 143.802C617.471 143.916 617.081 144.014 616.643 144.095C616.205 144.176 615.734 144.249 615.231 144.314C614.728 144.379 614.208 144.412 613.673 144.412C612.326 144.412 611.157 144.208 610.167 143.802C609.177 143.396 608.357 142.844 607.708 142.146C607.075 141.431 606.604 140.587 606.296 139.612C605.971 138.654 605.809 137.598 605.809 136.445ZM609.51 134.861H616.083C616.083 134.374 616.01 133.911 615.864 133.473C615.734 133.034 615.539 132.66 615.28 132.352C615.004 132.027 614.679 131.767 614.306 131.572C613.933 131.394 613.478 131.304 612.942 131.304C612.407 131.304 611.928 131.41 611.506 131.621C611.1 131.816 610.759 132.084 610.483 132.425C610.191 132.75 609.972 133.123 609.826 133.546C609.664 133.984 609.558 134.423 609.51 134.861ZM631.592 141.391L631.105 144.314C630.05 144.298 629.173 144.184 628.475 143.973C627.794 143.746 627.25 143.437 626.844 143.047C626.422 142.641 626.13 142.146 625.968 141.561C625.806 140.96 625.724 140.278 625.724 139.515V121.925L629.255 121.34V138.857C629.255 139.279 629.287 139.636 629.352 139.929C629.433 140.221 629.555 140.473 629.717 140.684C629.896 140.879 630.139 141.033 630.448 141.147C630.74 141.244 631.121 141.326 631.592 141.391ZM640.454 128.722V144.022H636.924V128.722H640.454ZM640.843 124.263C640.843 124.929 640.624 125.457 640.186 125.847C639.764 126.237 639.261 126.432 638.677 126.432C638.076 126.432 637.557 126.237 637.118 125.847C636.696 125.457 636.485 124.929 636.485 124.263C636.485 123.581 636.696 123.045 637.118 122.655C637.557 122.266 638.076 122.071 638.677 122.071C639.261 122.071 639.764 122.266 640.186 122.655C640.624 123.045 640.843 123.581 640.843 124.263ZM647.393 144.022V129.233C648.074 129.039 648.959 128.852 650.046 128.673C651.134 128.494 652.343 128.405 653.674 128.405C654.924 128.405 655.963 128.576 656.79 128.917C657.634 129.258 658.308 129.737 658.811 130.354C659.298 130.971 659.647 131.71 659.858 132.571C660.053 133.448 660.15 134.398 660.15 135.422V144.022H656.62V135.982C656.62 135.17 656.571 134.471 656.474 133.887C656.36 133.318 656.182 132.855 655.938 132.498C655.695 132.124 655.362 131.857 654.94 131.694C654.518 131.532 654.007 131.45 653.406 131.45C652.968 131.45 652.505 131.483 652.018 131.548C651.532 131.597 651.166 131.645 650.923 131.694V144.022H647.393ZM669.694 135.982C669.694 137.476 670.019 138.573 670.668 139.271C671.317 139.969 672.161 140.319 673.2 140.319C673.768 140.319 674.295 140.237 674.782 140.075C675.286 139.913 675.691 139.726 676 139.515V131.597C675.756 131.532 675.448 131.475 675.074 131.426C674.701 131.377 674.23 131.353 673.662 131.353C672.38 131.353 671.398 131.783 670.717 132.644C670.035 133.489 669.694 134.601 669.694 135.982ZM679.53 129.233V142.462C679.53 144.899 678.913 146.685 677.68 147.822C676.446 148.959 674.555 149.528 672.007 149.528C671.065 149.528 670.157 149.447 669.28 149.284C668.387 149.122 667.584 148.919 666.87 148.675L667.503 145.654C668.103 145.914 668.793 146.117 669.572 146.263C670.335 146.426 671.163 146.507 672.056 146.507C673.484 146.507 674.498 146.214 675.099 145.63C675.699 145.045 676 144.176 676 143.023V142.438C675.659 142.617 675.196 142.795 674.612 142.974C674.044 143.153 673.387 143.242 672.64 143.242C671.666 143.242 670.773 143.08 669.962 142.755C669.166 142.446 668.477 141.991 667.892 141.391C667.324 140.79 666.878 140.034 666.553 139.125C666.229 138.215 666.066 137.168 666.066 135.982C666.066 134.877 666.237 133.854 666.578 132.912C666.918 131.97 667.414 131.174 668.063 130.525C668.728 129.859 669.524 129.339 670.449 128.965C671.39 128.592 672.453 128.405 673.638 128.405C674.79 128.405 675.878 128.494 676.901 128.673C677.939 128.852 678.816 129.039 679.53 129.233Z" fill="#2B2B2B"/>
<defs>
<clipPath id="clip0_65_27">
<rect width="165" height="166" fill="white"/>
</clipPath>
</defs>
</svg>
